<?xml version="1.0" encoding="UTF-8"?>
<svg id="uuid-c29b66e9-5bea-414e-b874-fed3c9471c04" data-name="Calque 1" xmlns="http://www.w3.org/2000/svg" viewBox="0 0 240 29.31">
  <defs>
    <style>
      .uuid-21945f72-d5e1-4b0b-971e-a0c67d204d9a {
        fill: #fff;
      }
    </style>
  </defs>
  <path class="uuid-21945f72-d5e1-4b0b-971e-a0c67d204d9a" d="M87.84,7.44c1.08,0,2-.36,2.75-1.08,.75-.72,1.13-1.61,1.13-2.66s-.38-1.96-1.13-2.66c-.75-.69-1.67-1.04-2.75-1.04s-1.96,.36-2.71,1.08-1.13,1.59-1.13,2.62,.38,1.93,1.13,2.66c.75,.72,1.65,1.08,2.71,1.08Z"/>
  <path class="uuid-21945f72-d5e1-4b0b-971e-a0c67d204d9a" d="M112.72,27.68c-.16-.3-.24-.92-.24-1.87l-.04-1.81V10.27h-10.31V.24h-10.62V.87l1.34,.08c.84,.08,1.31,.28,1.42,.59,.1,.31,.18,.79,.24,1.42l.04,1.61V24l-.04,1.81c0,.97-.08,1.6-.24,1.89-.14,.25-.53,.42-1.14,.51-.61-.09-1-.27-1.14-.53-.16-.3-.24-.92-.24-1.87l-.04-1.81V10.27h-10.35v.63l1.06,.08c.84,.08,1.31,.28,1.42,.59,.1,.31,.18,.79,.24,1.42l.04,1.61v1.33c0-1.07-.39-2.01-1.16-2.81-.78-.8-1.59-1.42-2.44-1.85-.85-.43-1.77-.77-2.74-1.02-.97-.25-2.04-.37-3.19-.37-3.07,0-5.64,.89-7.71,2.68-.79,.68-1.43,1.45-1.91,2.31-.39-.88-.93-1.69-1.62-2.42-1.6-1.7-3.92-2.56-6.94-2.56s-5.37,.91-7.43,2.73c-.28,.24-.53,.5-.77,.76-.19-.75-.57-1.42-1.16-2.02-.88-.88-1.95-1.32-3.21-1.32-2.15,0-3.52,.47-4.11,1.42-.59,.94-.98,1.65-1.16,2.12v-3.31h-8.12c.13-.68,.21-1.37,.21-2.08,0-1.26-.28-2.43-.83-3.52-.55-1.09-1.53-2.11-2.93-3.05-1.4-.94-4.24-1.42-8.52-1.42L0,.24V.87c.37,.03,.78,.05,1.24,.06,.46,.01,.97,.06,1.53,.14,.56,.08,1,.29,1.32,.63,.31,.34,.51,.93,.59,1.77l.08,1.81V23.92l-.08,1.81c-.08,.84-.27,1.42-.57,1.75-.3,.33-.71,.52-1.24,.59-.53,.07-1.06,.14-1.61,.22H.04v.63H19.24v-.63c-.21-.03-.59-.05-1.14-.06-.55-.01-1.12-.06-1.69-.14s-1.02-.28-1.32-.61c-.3-.33-.49-.91-.57-1.75l-.08-1.81v-7.55c.71-.03,1.59-.05,2.64-.06,1.05-.01,2.43-.02,4.13-.02s3.24-.17,4.37-.51c1.13-.34,2.07-.86,2.83-1.55,.76-.69,1.32-1.58,1.69-2.66,.05-.14,.08-.28,.12-.42,.29,.1,.49,.24,.55,.42,.1,.31,.18,.79,.24,1.42l.04,1.61v9.4l-.04,1.81c0,.97-.08,1.6-.24,1.89-.16,.29-.62,.47-1.38,.55l-1.06,.04v.63h13.14v-.63l-1.16-.08c-.72-.08-1.18-.25-1.36-.51-.18-.26-.27-.76-.27-1.5l-.04-1.97V15.15c0-.71,.25-1.47,.75-2.28,.5-.81,1.09-1.22,1.77-1.22,.13,0,.26,.09,.39,.28-.26,.52-.53,1.04-.79,1.53-.24,.55-.35,1.15-.35,1.81,0,.89,.36,1.69,1.08,2.38,.72,.7,1.58,1.04,2.58,1.04,.7,0,1.33-.15,1.9-.42-.05,.43-.09,.87-.09,1.32,0,3.04,1,5.42,3,7.14,2,1.72,4.55,2.58,7.65,2.58,2.21,0,4.13-.56,5.76-1.67,1.18-.8,2.11-1.84,2.82-3.09,.48,.77,1.09,1.48,1.83,2.1,2.1,1.77,4.65,2.66,7.65,2.66,4.55,0,7.7-1.94,9.46-5.82l-.59-.31c-.55,1.39-1.37,2.54-2.45,3.44-1.08,.9-2.34,1.36-3.79,1.36-2.03,0-3.44-.88-4.24-2.66-.8-1.77-1.2-3.85-1.2-6.24,0-.92,.06-1.87,.18-2.85,.12-.98,.31-1.89,.59-2.73,.28-.84,.66-1.55,1.16-2.12,.5-.58,1.11-.87,1.85-.87,.58,0,1.02,.13,1.34,.39,.31,.26,.47,.6,.47,1.02,0,.45-.14,1-.43,1.65-.29,.66-.43,1.34-.43,2.05,0,.92,.41,1.74,1.25,2.46,.83,.72,1.76,1.08,2.79,1.08,1.19,0,2.08-.3,2.69-.89,.6-.59,.91-1.37,.91-2.34v8.06l-.04,1.81c0,.97-.08,1.6-.24,1.89-.16,.29-.62,.47-1.38,.55l-.94,.04v.63h33.52v-.63l-.94-.04c-.76-.08-1.22-.27-1.38-.57ZM20.2,12.89c-.41,1.4-1.06,2.19-1.97,2.36-.9,.17-1.63,.27-2.18,.3-.55,.03-1.09,.05-1.61,.08V.9c.37,0,.92,0,1.67,.02,.75,.01,1.52,.13,2.32,.35,.8,.22,1.4,1.04,1.79,2.46,.39,1.42,.59,2.87,.59,4.37,0,1.78-.2,3.38-.61,4.78Zm33.54,2.5c.13-1.65,.36-2.88,.68-3.68,.33-.8,.9-1.2,1.74-1.2,.96,0,1.64,.41,2.03,1.24,.39,.83,.59,2.04,.59,3.64,0,.6,0,1.1,.02,1.49,.01,.39,.03,.73,.06,1.02h-5.19l.08-2.52Zm9.29,10.76c-.94,.9-2.21,1.36-3.82,1.36-1.12,0-2.05-.28-2.79-.85-.74-.56-1.32-1.31-1.72-2.22-.4-.92-.68-1.87-.82-2.85-.14-.98-.21-1.95-.21-2.89h10.15c-.02,.31-.04,.62-.04,.94,0,1.57,.32,2.97,.93,4.21-.45,.88-1,1.66-1.67,2.3Zm41.82-2.14l-.04,1.81c0,.97-.08,1.6-.24,1.89-.13,.25-.5,.41-1.08,.5-.58-.09-.95-.27-1.08-.52-.16-.3-.24-.92-.24-1.87l-.04-1.81V10.9l1.02,.08c.84,.08,1.31,.28,1.42,.59,.1,.31,.18,.79,.24,1.42l.04,1.61v9.4Z"/>
  <path class="uuid-21945f72-d5e1-4b0b-971e-a0c67d204d9a" d="M108.57,7.44c1.08,0,2-.36,2.75-1.08,.75-.72,1.13-1.61,1.13-2.66s-.38-1.96-1.13-2.66c-.75-.69-1.67-1.04-2.75-1.04s-1.96,.36-2.71,1.08c-.75,.72-1.13,1.59-1.13,2.62s.38,1.93,1.13,2.66c.75,.72,1.65,1.08,2.71,1.08Z"/>
  <path class="uuid-21945f72-d5e1-4b0b-971e-a0c67d204d9a" d="M134.54,25.82c-.25,.78-.68,1.17-1.3,1.17-.52,0-.84-.24-.97-.71-.15-.45-.23-1.09-.23-1.94V15.29c0-1.84-.89-3.21-2.68-4.09-1.79-.88-3.75-1.32-5.88-1.32-2.52,0-4.7,.49-6.53,1.46s-2.74,2.28-2.74,3.91c0,.82,.33,1.47,1.01,1.96,.67,.49,1.45,.73,2.35,.73,1.63,0,2.81-.32,3.53-.95,.72-.63,1.08-1.36,1.08-2.17,0-.87-.28-1.52-.84-1.96-.56-.43-.84-.8-.84-1.09,0-.37,.17-.67,.52-.91,.35-.24,.79-.36,1.31-.36,.83,0,1.38,.22,1.64,.67,.26,.45,.39,1.18,.39,2.21l.04,3.59c0,.47-.14,.81-.43,1.01-.29,.2-.77,.38-1.44,.55-.67,.17-1.71,.32-3.13,.45-1.42,.13-2.47,.29-3.15,.47-.68,.18-1.35,.68-2.01,1.48-.66,.8-.98,1.86-.98,3.17,0,1.63,.52,2.9,1.57,3.83,1.05,.92,2.41,1.38,4.09,1.38,1.57,0,2.85-.27,3.84-.8s1.69-1.33,2.11-2.39c.18,.97,.71,1.75,1.59,2.32,.88,.58,1.88,.87,3.01,.87,1.02,0,1.86-.1,2.52-.3,.66-.2,1.4-.67,2.22-1.4,.83-.74,1.24-2.26,1.24-4.58h-.55c0,1.08-.12,2.01-.37,2.79Zm-10.14-.02c-.1,.45-.34,.87-.72,1.26s-.81,.59-1.3,.59c-.65,0-1.06-.35-1.25-1.06-.18-.71-.27-1.65-.27-2.83,0-.79,.07-1.55,.21-2.3,.14-.75,.34-1.25,.58-1.52,.25-.26,.69-.53,1.32-.81,.64-.28,1.07-.57,1.3-.89l.12,.04v7.52Z"/>
  <path class="uuid-21945f72-d5e1-4b0b-971e-a0c67d204d9a" d="M176.36,27.48c-.28-.33-.45-.91-.53-1.75l-.08-1.81V5.27l.08-1.81c.08-.84,.28-1.43,.59-1.77,.31-.34,.89-.56,1.71-.67,.83-.1,1.37-.16,1.63-.16h.9V.24h-14.17l-5.95,17.08L153.93,.24h-14.57V.87c.26,.03,.66,.05,1.19,.08,.53,.03,1.06,.08,1.61,.16,.54,.08,1,.33,1.39,.75,.38,.42,.67,.94,.85,1.57l.08,1.81V23.49l-.08,1.89c-.08,.81-.31,1.44-.69,1.89-.38,.45-.9,.71-1.55,.81-.66,.09-1.21,.14-1.67,.16-.46,.01-.88,.03-1.28,.06v.63h11.33v-.63l-2.75-.2c-.81-.11-1.4-.37-1.75-.81-.35-.43-.57-1.07-.65-1.91l-.08-1.89V5.11h.24l9.6,23.8h2.44l6.96-20.46,1.61-5.08h.24c-.08,.97-.15,2.01-.22,3.13-.07,1.12-.1,2.08-.1,2.89v14.6l-.08,1.81c-.08,.89-.25,1.48-.51,1.77-.26,.29-.81,.49-1.65,.59l-1.81,.12v.63h17.94v-.63l-1.97-.16c-.81-.11-1.36-.32-1.63-.65Z"/>
  <path class="uuid-21945f72-d5e1-4b0b-971e-a0c67d204d9a" d="M220.03,27.68c-.25-.28-.37-.77-.37-1.48l-.04-1.61V.24h-11.57V.87l1.83,.12c.86,.11,1.41,.3,1.67,.59,.26,.29,.39,.87,.39,1.73l.08,1.81v5.04l.04,2.05c-.29-.55-.73-1.08-1.34-1.57-.6-.5-1.82-.75-3.66-.75-2.52,0-4.56,.88-6.14,2.64-.71,.79-1.25,1.7-1.64,2.73-.51-.96-1.2-1.83-2.08-2.61-2.09-1.84-4.58-2.75-7.5-2.75s-5.48,.92-7.53,2.77c-2.06,1.85-3.09,4.16-3.09,6.94s1.02,5.1,3.05,6.94c2.03,1.85,4.56,2.77,7.57,2.77,2.86,0,5.34-.92,7.46-2.77,.9-.79,1.6-1.67,2.12-2.63,.39,1.05,.93,1.98,1.64,2.77,1.57,1.76,3.62,2.64,6.14,2.64,1.78,0,3-.26,3.64-.79,.64-.52,1.11-1.05,1.4-1.57v1.97h10.62v-.63l-1.26-.08c-.71-.08-1.19-.26-1.44-.53Zm-27.64-5.74c-.03,.72-.04,1.34-.04,1.87,0,1.36-.22,2.52-.67,3.46-.45,.94-1.1,1.42-1.97,1.42s-1.55-.46-1.99-1.38c-.43-.92-.65-2.09-.65-3.5,0-.18-.03-.85-.08-1.99-.05-1.14-.08-1.89-.08-2.26,.03-.84,.06-1.62,.1-2.34,.04-.72,.06-1.33,.06-1.83,0-1.34,.22-2.49,.67-3.44,.45-.96,1.09-1.44,1.93-1.44,.92,0,1.59,.46,2.03,1.38,.43,.92,.65,2.09,.65,3.5,0,.21,.03,.87,.08,1.97s.08,1.84,.08,2.2c-.05,.87-.09,1.66-.12,2.38Zm19.63-2.42c0,.76-.01,1.91-.04,3.44-.03,1.53-.07,2.6-.12,3.21-.24,1.39-1.08,2.08-2.52,2.08-.84,0-1.46-.39-1.87-1.18-.41-.79-.67-1.8-.79-3.03-.12-1.23-.18-2.1-.18-2.6v-1.77c0-.68,.01-1.42,.04-2.22,.03-.8,.1-1.69,.22-2.68,.12-.98,.38-1.86,.79-2.64,.41-.77,1.02-1.16,1.83-1.16,.63,0,1.18,.17,1.65,.51,.47,.34,.76,.84,.87,1.49,.08,.84,.12,1.81,.12,2.91v3.62Z"/>
  <path class="uuid-21945f72-d5e1-4b0b-971e-a0c67d204d9a" d="M239.37,22.74c-.5,1.36-1.22,2.5-2.16,3.4-.94,.9-2.21,1.36-3.82,1.36-1.12,0-2.05-.28-2.79-.85-.74-.56-1.32-1.31-1.72-2.22s-.68-1.87-.82-2.85c-.14-.98-.21-1.95-.21-2.89h12.08c0-2.47-.8-4.55-2.4-6.26-1.6-1.7-3.92-2.56-6.94-2.56s-5.37,.91-7.43,2.73c-2.06,1.82-3.09,4.15-3.09,6.98,0,3.04,1,5.42,2.99,7.14,2,1.72,4.55,2.58,7.65,2.58,2.21,0,4.13-.56,5.76-1.67,1.63-1.11,2.81-2.66,3.55-4.62l-.63-.28Zm-11.45-7.36c.13-1.65,.36-2.88,.68-3.68,.32-.8,.9-1.2,1.74-1.2,.96,0,1.64,.41,2.03,1.24,.39,.83,.59,2.04,.59,3.64,0,.6,0,1.1,.02,1.49,.01,.39,.03,.73,.06,1.02h-5.19l.08-2.52Z"/>
</svg>